# xmcd CD database file
#
# Track frame offsets:
#	150
#	14255
#	28778
#	41451
#	55951
#	67333
#	80588
#	92928
#	106101
#	113705
#	126038
#	146802
#
# Disc length: 2134 seconds
#
# Revision: 0
# Processed by: cddbd v1.5.2PL0 Copyright (c) Steve Scherf et al.
# Submitted via: CDex 1.51
#
DISCID=a608540c
DTITLE=Kinky Friedman - The Loneliest Man I Ever Met
DYEAR=2015
DGENRE=Country
TTITLE0=Bloody Mary Morning
TTITLE1=Christmas Card From A Hooker In Minneapolis
TTITLE2=The Lonliest Man I Ever Met
TTITLE3=My Shit's Fucked Up
TTITLE4=Lady Yesterday
TTITLE5=Freedom To Stay
TTITLE6=Wild Man From Borneo
TTITLE7=Hungry Eyes
TTITLE8=Pickin' Time
TTITLE9=Girl From The North Country
TTITLE10=Wand'rin Star
TTITLE11=Kinky Friedman - A Nightingsle Sang In Berkeley Square
EXTD=YEAR: 2015
EXTT0=
EXTT1=
EXTT2=
EXTT3=
EXTT4=
EXTT5=
EXTT6=
EXTT7=
EXTT8=
EXTT9=
EXTT10=
EXTT11=
PLAYORDER=
